<mxfile host="app.diagrams.net" modified="2023-09-26T10:03:32.894Z" agent="Mozilla/5.0 (Windows NT 10.0; Win64; x64) AppleWebKit/537.36 (KHTML, like Gecko) Chrome/116.0.0.0 Safari/537.36" etag="hEp6MLenKwlceCeaIisW" version="21.8.2" type="device">
  <diagram name="Page-1" id="n1XQvRwVErb2z4hofbJQ">
    <mxGraphModel dx="2547" dy="775" grid="1" gridSize="10" guides="1" tooltips="1" connect="1" arrows="1" fold="1" page="1" pageScale="1" pageWidth="827" pageHeight="1169" math="0" shadow="0">
      <root>
        <mxCell id="0" />
        <mxCell id="1" parent="0" />
        <mxCell id="4uj0-8suZrgbBT34IVJw-23" value="" style="group" vertex="1" connectable="0" parent="1">
          <mxGeometry x="-800" y="120" width="1530" height="880" as="geometry" />
        </mxCell>
        <mxCell id="3TLnsGkRW6fNsrIRPCbp-1" value="&lt;h2&gt;&lt;span style=&quot;font-weight: normal;&quot;&gt;&lt;font face=&quot;Times New Roman&quot;&gt;CONG VAN&lt;/font&gt;&lt;/span&gt;&lt;/h2&gt;" style="rounded=0;whiteSpace=wrap;html=1;" parent="4uj0-8suZrgbBT34IVJw-23" vertex="1">
          <mxGeometry x="947.6772616136919" y="244.44444444444443" width="149.63325183374084" height="73.33333333333333" as="geometry" />
        </mxCell>
        <mxCell id="3TLnsGkRW6fNsrIRPCbp-2" value="&lt;h1&gt;&lt;span style=&quot;font-weight: normal;&quot;&gt;d&lt;/span&gt;&lt;/h1&gt;" style="ellipse;whiteSpace=wrap;html=1;rounded=0;" parent="4uj0-8suZrgbBT34IVJw-23" vertex="1">
          <mxGeometry x="972.6161369193154" y="391.1111111111111" width="99.75550122249389" height="97.77777777777777" as="geometry" />
        </mxCell>
        <mxCell id="3TLnsGkRW6fNsrIRPCbp-8" value="" style="verticalLabelPosition=bottom;verticalAlign=top;html=1;shape=mxgraph.basic.frame;dx=10;whiteSpace=wrap;" parent="4uj0-8suZrgbBT34IVJw-23" vertex="1">
          <mxGeometry x="785.5745721271394" y="592.7777777777777" width="124.69437652811736" height="73.33333333333333" as="geometry" />
        </mxCell>
        <mxCell id="3TLnsGkRW6fNsrIRPCbp-14" value="" style="verticalLabelPosition=bottom;verticalAlign=top;html=1;shape=mxgraph.basic.frame;dx=10;whiteSpace=wrap;" parent="4uj0-8suZrgbBT34IVJw-23" vertex="1">
          <mxGeometry x="1134.718826405868" y="592.7777777777777" width="124.69437652811736" height="73.33333333333333" as="geometry" />
        </mxCell>
        <mxCell id="3TLnsGkRW6fNsrIRPCbp-15" value="&lt;h2&gt;&lt;span style=&quot;font-weight: normal;&quot;&gt;&lt;font face=&quot;Times New Roman&quot;&gt;CV-DEN&lt;/font&gt;&lt;/span&gt;&lt;/h2&gt;" style="text;html=1;align=center;verticalAlign=middle;resizable=0;points=[];autosize=1;strokeColor=none;fillColor=none;" parent="4uj0-8suZrgbBT34IVJw-23" vertex="1">
          <mxGeometry x="791.8092909535453" y="590.3333333333334" width="90" height="60" as="geometry" />
        </mxCell>
        <mxCell id="3TLnsGkRW6fNsrIRPCbp-16" value="&lt;h2&gt;&lt;span style=&quot;font-weight: normal;&quot;&gt;&lt;font face=&quot;Times New Roman&quot;&gt;CV-DI&lt;/font&gt;&lt;/span&gt;&lt;/h2&gt;" style="text;html=1;align=center;verticalAlign=middle;resizable=0;points=[];autosize=1;strokeColor=none;fillColor=none;" parent="4uj0-8suZrgbBT34IVJw-23" vertex="1">
          <mxGeometry x="1153.4229828850857" y="592.7777777777777" width="70" height="60" as="geometry" />
        </mxCell>
        <mxCell id="3TLnsGkRW6fNsrIRPCbp-20" value="&lt;h2&gt;&lt;font face=&quot;Times New Roman&quot;&gt;&lt;span style=&quot;font-weight: normal;&quot;&gt;NGAY PHAT HANH&lt;/span&gt;&lt;/font&gt;&lt;/h2&gt;" style="ellipse;whiteSpace=wrap;html=1;" parent="4uj0-8suZrgbBT34IVJw-23" vertex="1">
          <mxGeometry x="498.77750611246944" width="149.63325183374084" height="97.77777777777777" as="geometry" />
        </mxCell>
        <mxCell id="3TLnsGkRW6fNsrIRPCbp-21" value="&lt;h2&gt;&lt;font style=&quot;font-weight: normal;&quot; face=&quot;Times New Roman&quot;&gt;SO CONG VAN&lt;/font&gt;&lt;/h2&gt;" style="ellipse;whiteSpace=wrap;html=1;" parent="4uj0-8suZrgbBT34IVJw-23" vertex="1">
          <mxGeometry x="698.2885085574572" width="149.63325183374084" height="97.77777777777777" as="geometry" />
        </mxCell>
        <mxCell id="3TLnsGkRW6fNsrIRPCbp-22" value="&lt;h2&gt;&lt;font style=&quot;font-weight: normal;&quot; face=&quot;Times New Roman&quot;&gt;NOI DUNG&lt;/font&gt;&lt;/h2&gt;" style="ellipse;whiteSpace=wrap;html=1;" parent="4uj0-8suZrgbBT34IVJw-23" vertex="1">
          <mxGeometry x="897.7995110024451" width="149.63325183374084" height="97.77777777777777" as="geometry" />
        </mxCell>
        <mxCell id="3TLnsGkRW6fNsrIRPCbp-23" value="&lt;h2&gt;&lt;font style=&quot;font-weight: normal;&quot; face=&quot;Times New Roman&quot;&gt;SO TRANG&lt;/font&gt;&lt;/h2&gt;" style="ellipse;whiteSpace=wrap;html=1;" parent="4uj0-8suZrgbBT34IVJw-23" vertex="1">
          <mxGeometry x="1097.3105134474329" width="149.63325183374084" height="97.77777777777777" as="geometry" />
        </mxCell>
        <mxCell id="3TLnsGkRW6fNsrIRPCbp-24" value="&lt;h2&gt;&lt;font style=&quot;font-weight: normal;&quot; face=&quot;Times New Roman&quot;&gt;GHI CHU&lt;/font&gt;&lt;/h2&gt;" style="ellipse;whiteSpace=wrap;html=1;" parent="4uj0-8suZrgbBT34IVJw-23" vertex="1">
          <mxGeometry x="1296.8215158924204" width="149.63325183374084" height="97.77777777777777" as="geometry" />
        </mxCell>
        <mxCell id="3TLnsGkRW6fNsrIRPCbp-30" value="&lt;h2&gt;&lt;font style=&quot;font-weight: normal;&quot; face=&quot;Times New Roman&quot;&gt;NGAY NHAN&lt;/font&gt;&lt;/h2&gt;" style="ellipse;whiteSpace=wrap;html=1;" parent="4uj0-8suZrgbBT34IVJw-23" vertex="1">
          <mxGeometry x="648.4107579462102" y="464.4444444444444" width="149.63325183374084" height="97.77777777777777" as="geometry" />
        </mxCell>
        <mxCell id="3TLnsGkRW6fNsrIRPCbp-32" value="&lt;h2&gt;&lt;span style=&quot;font-weight: normal;&quot;&gt;&lt;font face=&quot;Times New Roman&quot;&gt;NGUOI KY&lt;/font&gt;&lt;/span&gt;&lt;/h2&gt;" style="ellipse;whiteSpace=wrap;html=1;" parent="4uj0-8suZrgbBT34IVJw-23" vertex="1">
          <mxGeometry x="1380.3667481662592" y="366.6666666666667" width="149.63325183374084" height="97.77777777777777" as="geometry" />
        </mxCell>
        <mxCell id="3TLnsGkRW6fNsrIRPCbp-33" value="&lt;h2&gt;&lt;font style=&quot;font-weight: normal;&quot; face=&quot;Times New Roman&quot;&gt;SO TO TRINH KY&lt;/font&gt;&lt;/h2&gt;" style="ellipse;whiteSpace=wrap;html=1;" parent="4uj0-8suZrgbBT34IVJw-23" vertex="1">
          <mxGeometry x="1371.638141809291" y="492.55555555555554" width="149.63325183374084" height="97.77777777777777" as="geometry" />
        </mxCell>
        <mxCell id="3TLnsGkRW6fNsrIRPCbp-34" value="&lt;h2&gt;&lt;font style=&quot;font-weight: normal;&quot; face=&quot;Times New Roman&quot;&gt;NGAY TRINH KY&lt;/font&gt;&lt;/h2&gt;" style="ellipse;whiteSpace=wrap;html=1;" parent="4uj0-8suZrgbBT34IVJw-23" vertex="1">
          <mxGeometry x="1380.3667481662592" y="635.5555555555554" width="149.63325183374084" height="97.77777777777777" as="geometry" />
        </mxCell>
        <mxCell id="3TLnsGkRW6fNsrIRPCbp-39" value="&lt;h2&gt;&lt;font style=&quot;font-weight: normal;&quot; face=&quot;Times New Roman&quot;&gt;GIAI QUYET&lt;/font&gt;&lt;/h2&gt;" style="rhombus;whiteSpace=wrap;html=1;" parent="4uj0-8suZrgbBT34IVJw-23" vertex="1">
          <mxGeometry x="548.6552567237164" y="580.5555555555554" width="99.75550122249389" height="97.77777777777777" as="geometry" />
        </mxCell>
        <mxCell id="3TLnsGkRW6fNsrIRPCbp-40" value="&lt;h2&gt;&lt;font style=&quot;font-weight: normal;&quot; face=&quot;Times New Roman&quot;&gt;CHUYEN VIEN&lt;/font&gt;&lt;/h2&gt;" style="rounded=0;whiteSpace=wrap;html=1;" parent="4uj0-8suZrgbBT34IVJw-23" vertex="1">
          <mxGeometry x="286.79706601466995" y="592.7777777777777" width="149.63325183374084" height="73.33333333333333" as="geometry" />
        </mxCell>
        <mxCell id="3TLnsGkRW6fNsrIRPCbp-45" value="&lt;h2&gt;&lt;font style=&quot;font-weight: normal;&quot; face=&quot;Times New Roman&quot;&gt;TEN CVIEN&lt;/font&gt;&lt;/h2&gt;" style="ellipse;whiteSpace=wrap;html=1;" parent="4uj0-8suZrgbBT34IVJw-23" vertex="1">
          <mxGeometry y="590.3333333333334" width="149.63325183374084" height="97.77777777777777" as="geometry" />
        </mxCell>
        <mxCell id="3TLnsGkRW6fNsrIRPCbp-46" value="&lt;h2&gt;&lt;font style=&quot;font-weight: normal;&quot; face=&quot;Times New Roman&quot;&gt;PHONG BAN&lt;/font&gt;&lt;/h2&gt;" style="ellipse;whiteSpace=wrap;html=1;" parent="4uj0-8suZrgbBT34IVJw-23" vertex="1">
          <mxGeometry y="733.3333333333334" width="149.63325183374084" height="97.77777777777777" as="geometry" />
        </mxCell>
        <mxCell id="3TLnsGkRW6fNsrIRPCbp-51" value="&lt;h2&gt;&lt;font style=&quot;font-weight: normal;&quot; face=&quot;Times New Roman&quot;&gt;SO CVIEC&lt;/font&gt;&lt;/h2&gt;" style="ellipse;whiteSpace=wrap;html=1;" parent="4uj0-8suZrgbBT34IVJw-23" vertex="1">
          <mxGeometry x="324.2053789731051" y="782.2222222222222" width="149.63325183374084" height="97.77777777777777" as="geometry" />
        </mxCell>
        <mxCell id="3TLnsGkRW6fNsrIRPCbp-52" value="&lt;h2&gt;&lt;font style=&quot;font-weight: normal;&quot; face=&quot;Times New Roman&quot;&gt;THOI HAN TRA LOI&lt;/font&gt;&lt;/h2&gt;" style="ellipse;whiteSpace=wrap;html=1;" parent="4uj0-8suZrgbBT34IVJw-23" vertex="1">
          <mxGeometry x="523.716381418093" y="782.2222222222222" width="149.63325183374084" height="97.77777777777777" as="geometry" />
        </mxCell>
        <mxCell id="3TLnsGkRW6fNsrIRPCbp-53" value="&lt;h2&gt;&lt;font style=&quot;font-weight: normal;&quot; face=&quot;Times New Roman&quot;&gt;KQ GIAI QUYET&lt;/font&gt;&lt;/h2&gt;" style="ellipse;whiteSpace=wrap;html=1;" parent="4uj0-8suZrgbBT34IVJw-23" vertex="1">
          <mxGeometry x="723.2273838630807" y="782.2222222222222" width="149.63325183374084" height="97.77777777777777" as="geometry" />
        </mxCell>
        <mxCell id="3TLnsGkRW6fNsrIRPCbp-57" value="&lt;h1&gt;&lt;span style=&quot;font-weight: normal;&quot;&gt;1&lt;/span&gt;&lt;/h1&gt;" style="text;html=1;align=center;verticalAlign=middle;resizable=0;points=[];autosize=1;strokeColor=none;fillColor=none;" parent="4uj0-8suZrgbBT34IVJw-23" vertex="1">
          <mxGeometry x="1015.0122249388753" y="300.00333333333333" width="40" height="70" as="geometry" />
        </mxCell>
        <mxCell id="3TLnsGkRW6fNsrIRPCbp-59" value="&lt;h1&gt;&lt;font face=&quot;Times New Roman&quot;&gt;&lt;span style=&quot;font-weight: 400;&quot;&gt;N&lt;/span&gt;&lt;/font&gt;&lt;/h1&gt;" style="text;html=1;align=center;verticalAlign=middle;resizable=0;points=[];autosize=1;strokeColor=none;fillColor=none;" parent="4uj0-8suZrgbBT34IVJw-23" vertex="1">
          <mxGeometry x="832.8628850855746" y="539.9999999999999" width="40" height="70" as="geometry" />
        </mxCell>
        <mxCell id="3TLnsGkRW6fNsrIRPCbp-60" value="&lt;h1&gt;&lt;span style=&quot;font-weight: normal;&quot;&gt;&lt;font face=&quot;Times New Roman&quot;&gt;N&lt;/font&gt;&lt;/span&gt;&lt;/h1&gt;" style="text;html=1;align=center;verticalAlign=middle;resizable=0;points=[];autosize=1;strokeColor=none;fillColor=none;" parent="4uj0-8suZrgbBT34IVJw-23" vertex="1">
          <mxGeometry x="1168.4182640586798" y="529.9988888888888" width="40" height="70" as="geometry" />
        </mxCell>
        <mxCell id="4uj0-8suZrgbBT34IVJw-1" value="&lt;span style=&quot;font-size: 18px;&quot;&gt;MA CVIEN&lt;/span&gt;" style="ellipse;whiteSpace=wrap;html=1;align=center;fontStyle=4;" vertex="1" parent="4uj0-8suZrgbBT34IVJw-23">
          <mxGeometry x="6.234718826405868" y="452.2222222222222" width="143.39853300733498" height="97.77777777777777" as="geometry" />
        </mxCell>
        <mxCell id="4uj0-8suZrgbBT34IVJw-2" value="" style="endArrow=none;html=1;rounded=0;entryX=0.5;entryY=1;entryDx=0;entryDy=0;exitX=0.5;exitY=0;exitDx=0;exitDy=0;" edge="1" parent="4uj0-8suZrgbBT34IVJw-23" source="3TLnsGkRW6fNsrIRPCbp-2" target="3TLnsGkRW6fNsrIRPCbp-1">
          <mxGeometry width="50" height="50" relative="1" as="geometry">
            <mxPoint x="960.1466992665038" y="378.88888888888886" as="sourcePoint" />
            <mxPoint x="1022.4938875305625" y="317.7777777777777" as="targetPoint" />
          </mxGeometry>
        </mxCell>
        <mxCell id="4uj0-8suZrgbBT34IVJw-3" value="" style="endArrow=none;html=1;rounded=0;entryX=0.5;entryY=1;entryDx=0;entryDy=0;exitX=0.5;exitY=0;exitDx=0;exitDy=0;exitPerimeter=0;" edge="1" parent="4uj0-8suZrgbBT34IVJw-23" source="3TLnsGkRW6fNsrIRPCbp-8" target="3TLnsGkRW6fNsrIRPCbp-2">
          <mxGeometry width="50" height="50" relative="1" as="geometry">
            <mxPoint x="997.5550122249389" y="635.5555555555554" as="sourcePoint" />
            <mxPoint x="1010.0244498777506" y="501.1111111111111" as="targetPoint" />
          </mxGeometry>
        </mxCell>
        <mxCell id="4uj0-8suZrgbBT34IVJw-4" value="" style="endArrow=none;html=1;rounded=0;entryX=0.5;entryY=1;entryDx=0;entryDy=0;exitX=0.5;exitY=0;exitDx=0;exitDy=0;exitPerimeter=0;" edge="1" parent="4uj0-8suZrgbBT34IVJw-23" source="3TLnsGkRW6fNsrIRPCbp-14" target="3TLnsGkRW6fNsrIRPCbp-2">
          <mxGeometry width="50" height="50" relative="1" as="geometry">
            <mxPoint x="972.6161369193154" y="635.5555555555554" as="sourcePoint" />
            <mxPoint x="1034.963325183374" y="574.4444444444443" as="targetPoint" />
          </mxGeometry>
        </mxCell>
        <mxCell id="4uj0-8suZrgbBT34IVJw-5" value="" style="endArrow=none;html=1;rounded=0;exitX=1;exitY=0.5;exitDx=0;exitDy=0;exitPerimeter=0;entryX=0;entryY=0.5;entryDx=0;entryDy=0;" edge="1" parent="4uj0-8suZrgbBT34IVJw-23" source="3TLnsGkRW6fNsrIRPCbp-14" target="3TLnsGkRW6fNsrIRPCbp-32">
          <mxGeometry width="50" height="50" relative="1" as="geometry">
            <mxPoint x="1259.4132029339853" y="611.1111111111111" as="sourcePoint" />
            <mxPoint x="1321.760391198044" y="549.9999999999999" as="targetPoint" />
          </mxGeometry>
        </mxCell>
        <mxCell id="4uj0-8suZrgbBT34IVJw-7" value="" style="endArrow=none;html=1;rounded=0;entryX=0;entryY=0.5;entryDx=0;entryDy=0;exitX=1;exitY=0.5;exitDx=0;exitDy=0;exitPerimeter=0;" edge="1" parent="4uj0-8suZrgbBT34IVJw-23" source="3TLnsGkRW6fNsrIRPCbp-14" target="3TLnsGkRW6fNsrIRPCbp-33">
          <mxGeometry width="50" height="50" relative="1" as="geometry">
            <mxPoint x="1309.2909535452322" y="660" as="sourcePoint" />
            <mxPoint x="1371.638141809291" y="598.8888888888888" as="targetPoint" />
          </mxGeometry>
        </mxCell>
        <mxCell id="4uj0-8suZrgbBT34IVJw-8" value="" style="endArrow=none;html=1;rounded=0;entryX=0;entryY=0.5;entryDx=0;entryDy=0;exitX=1;exitY=0.5;exitDx=0;exitDy=0;exitPerimeter=0;" edge="1" parent="4uj0-8suZrgbBT34IVJw-23" source="3TLnsGkRW6fNsrIRPCbp-14" target="3TLnsGkRW6fNsrIRPCbp-34">
          <mxGeometry width="50" height="50" relative="1" as="geometry">
            <mxPoint x="1296.8215158924204" y="733.3333333333334" as="sourcePoint" />
            <mxPoint x="1359.1687041564792" y="672.2222222222222" as="targetPoint" />
          </mxGeometry>
        </mxCell>
        <mxCell id="4uj0-8suZrgbBT34IVJw-9" value="" style="endArrow=none;html=1;rounded=0;entryX=0;entryY=0.5;entryDx=0;entryDy=0;entryPerimeter=0;exitX=1;exitY=0.5;exitDx=0;exitDy=0;" edge="1" parent="4uj0-8suZrgbBT34IVJw-23" source="3TLnsGkRW6fNsrIRPCbp-39" target="3TLnsGkRW6fNsrIRPCbp-8">
          <mxGeometry width="50" height="50" relative="1" as="geometry">
            <mxPoint x="698.2885085574572" y="696.6666666666666" as="sourcePoint" />
            <mxPoint x="760.6356968215159" y="635.5555555555554" as="targetPoint" />
          </mxGeometry>
        </mxCell>
        <mxCell id="4uj0-8suZrgbBT34IVJw-10" value="" style="endArrow=none;html=1;rounded=0;entryX=0;entryY=0.5;entryDx=0;entryDy=0;exitX=0.5;exitY=0;exitDx=0;exitDy=0;" edge="1" parent="4uj0-8suZrgbBT34IVJw-23" source="3TLnsGkRW6fNsrIRPCbp-39" target="3TLnsGkRW6fNsrIRPCbp-30">
          <mxGeometry width="50" height="50" relative="1" as="geometry">
            <mxPoint x="573.5941320293399" y="574.4444444444443" as="sourcePoint" />
            <mxPoint x="635.9413202933986" y="513.3333333333333" as="targetPoint" />
          </mxGeometry>
        </mxCell>
        <mxCell id="4uj0-8suZrgbBT34IVJw-11" value="" style="endArrow=none;html=1;rounded=0;entryX=0;entryY=0.5;entryDx=0;entryDy=0;exitX=1;exitY=0.5;exitDx=0;exitDy=0;" edge="1" parent="4uj0-8suZrgbBT34IVJw-23" source="3TLnsGkRW6fNsrIRPCbp-40" target="3TLnsGkRW6fNsrIRPCbp-39">
          <mxGeometry width="50" height="50" relative="1" as="geometry">
            <mxPoint x="448.89975550122256" y="696.6666666666666" as="sourcePoint" />
            <mxPoint x="511.24694376528123" y="635.5555555555554" as="targetPoint" />
          </mxGeometry>
        </mxCell>
        <mxCell id="4uj0-8suZrgbBT34IVJw-12" value="" style="endArrow=none;html=1;rounded=0;exitX=1;exitY=0.5;exitDx=0;exitDy=0;entryX=0;entryY=0.5;entryDx=0;entryDy=0;" edge="1" parent="4uj0-8suZrgbBT34IVJw-23" source="4uj0-8suZrgbBT34IVJw-1" target="3TLnsGkRW6fNsrIRPCbp-40">
          <mxGeometry width="50" height="50" relative="1" as="geometry">
            <mxPoint x="187.04156479217605" y="549.9999999999999" as="sourcePoint" />
            <mxPoint x="249.38875305623472" y="488.88888888888886" as="targetPoint" />
          </mxGeometry>
        </mxCell>
        <mxCell id="4uj0-8suZrgbBT34IVJw-13" value="" style="endArrow=none;html=1;rounded=0;exitX=1;exitY=0.5;exitDx=0;exitDy=0;entryX=0;entryY=0.5;entryDx=0;entryDy=0;" edge="1" parent="4uj0-8suZrgbBT34IVJw-23" source="3TLnsGkRW6fNsrIRPCbp-45" target="3TLnsGkRW6fNsrIRPCbp-40">
          <mxGeometry width="50" height="50" relative="1" as="geometry">
            <mxPoint x="149.63325183374084" y="684.4444444444443" as="sourcePoint" />
            <mxPoint x="224.44987775061128" y="611.1111111111111" as="targetPoint" />
          </mxGeometry>
        </mxCell>
        <mxCell id="4uj0-8suZrgbBT34IVJw-14" value="" style="endArrow=none;html=1;rounded=0;exitX=1;exitY=0.5;exitDx=0;exitDy=0;entryX=0;entryY=0.5;entryDx=0;entryDy=0;" edge="1" parent="4uj0-8suZrgbBT34IVJw-23" source="3TLnsGkRW6fNsrIRPCbp-46" target="3TLnsGkRW6fNsrIRPCbp-40">
          <mxGeometry width="50" height="50" relative="1" as="geometry">
            <mxPoint x="174.5721271393643" y="794.4444444444443" as="sourcePoint" />
            <mxPoint x="236.91931540342298" y="733.3333333333334" as="targetPoint" />
          </mxGeometry>
        </mxCell>
        <mxCell id="4uj0-8suZrgbBT34IVJw-15" value="" style="endArrow=none;html=1;rounded=0;exitX=0.5;exitY=0;exitDx=0;exitDy=0;entryX=0.5;entryY=1;entryDx=0;entryDy=0;" edge="1" parent="4uj0-8suZrgbBT34IVJw-23" source="3TLnsGkRW6fNsrIRPCbp-51" target="3TLnsGkRW6fNsrIRPCbp-39">
          <mxGeometry width="50" height="50" relative="1" as="geometry">
            <mxPoint x="374.0831295843521" y="782.2222222222222" as="sourcePoint" />
            <mxPoint x="436.43031784841077" y="721.1111111111111" as="targetPoint" />
          </mxGeometry>
        </mxCell>
        <mxCell id="4uj0-8suZrgbBT34IVJw-16" value="" style="endArrow=none;html=1;rounded=0;entryX=0.5;entryY=1;entryDx=0;entryDy=0;exitX=0.5;exitY=0;exitDx=0;exitDy=0;" edge="1" parent="4uj0-8suZrgbBT34IVJw-23" source="3TLnsGkRW6fNsrIRPCbp-52" target="3TLnsGkRW6fNsrIRPCbp-39">
          <mxGeometry width="50" height="50" relative="1" as="geometry">
            <mxPoint x="586.0635696821515" y="770" as="sourcePoint" />
            <mxPoint x="648.4107579462102" y="708.8888888888888" as="targetPoint" />
          </mxGeometry>
        </mxCell>
        <mxCell id="4uj0-8suZrgbBT34IVJw-17" value="" style="endArrow=none;html=1;rounded=0;exitX=0.5;exitY=0;exitDx=0;exitDy=0;entryX=0.5;entryY=1;entryDx=0;entryDy=0;" edge="1" parent="4uj0-8suZrgbBT34IVJw-23" source="3TLnsGkRW6fNsrIRPCbp-53" target="3TLnsGkRW6fNsrIRPCbp-39">
          <mxGeometry width="50" height="50" relative="1" as="geometry">
            <mxPoint x="748.1662591687042" y="770" as="sourcePoint" />
            <mxPoint x="598.5330073349634" y="684.4444444444443" as="targetPoint" />
          </mxGeometry>
        </mxCell>
        <mxCell id="4uj0-8suZrgbBT34IVJw-18" value="" style="endArrow=none;html=1;rounded=0;entryX=0.5;entryY=1;entryDx=0;entryDy=0;exitX=0.5;exitY=0;exitDx=0;exitDy=0;" edge="1" parent="4uj0-8suZrgbBT34IVJw-23" source="3TLnsGkRW6fNsrIRPCbp-1" target="3TLnsGkRW6fNsrIRPCbp-20">
          <mxGeometry width="50" height="50" relative="1" as="geometry">
            <mxPoint x="511.24694376528123" y="171.1111111111111" as="sourcePoint" />
            <mxPoint x="573.5941320293399" y="110" as="targetPoint" />
          </mxGeometry>
        </mxCell>
        <mxCell id="4uj0-8suZrgbBT34IVJw-19" value="" style="endArrow=none;html=1;rounded=0;entryX=0.5;entryY=1;entryDx=0;entryDy=0;exitX=0.5;exitY=0;exitDx=0;exitDy=0;" edge="1" parent="4uj0-8suZrgbBT34IVJw-23" source="3TLnsGkRW6fNsrIRPCbp-1" target="3TLnsGkRW6fNsrIRPCbp-21">
          <mxGeometry width="50" height="50" relative="1" as="geometry">
            <mxPoint x="710.7579462102691" y="183.33333333333334" as="sourcePoint" />
            <mxPoint x="773.1051344743278" y="122.22222222222221" as="targetPoint" />
          </mxGeometry>
        </mxCell>
        <mxCell id="4uj0-8suZrgbBT34IVJw-20" value="" style="endArrow=none;html=1;rounded=0;entryX=0.5;entryY=1;entryDx=0;entryDy=0;exitX=0.5;exitY=0;exitDx=0;exitDy=0;" edge="1" parent="4uj0-8suZrgbBT34IVJw-23" source="3TLnsGkRW6fNsrIRPCbp-1" target="3TLnsGkRW6fNsrIRPCbp-22">
          <mxGeometry width="50" height="50" relative="1" as="geometry">
            <mxPoint x="922.7383863080685" y="183.33333333333334" as="sourcePoint" />
            <mxPoint x="985.0855745721273" y="122.22222222222221" as="targetPoint" />
          </mxGeometry>
        </mxCell>
        <mxCell id="4uj0-8suZrgbBT34IVJw-21" value="" style="endArrow=none;html=1;rounded=0;entryX=0.5;entryY=1;entryDx=0;entryDy=0;exitX=0.5;exitY=0;exitDx=0;exitDy=0;" edge="1" parent="4uj0-8suZrgbBT34IVJw-23" source="3TLnsGkRW6fNsrIRPCbp-1" target="3TLnsGkRW6fNsrIRPCbp-23">
          <mxGeometry width="50" height="50" relative="1" as="geometry">
            <mxPoint x="1122.249388753056" y="183.33333333333334" as="sourcePoint" />
            <mxPoint x="1184.596577017115" y="122.22222222222221" as="targetPoint" />
          </mxGeometry>
        </mxCell>
        <mxCell id="4uj0-8suZrgbBT34IVJw-22" value="" style="endArrow=none;html=1;rounded=0;entryX=0.5;entryY=1;entryDx=0;entryDy=0;exitX=0.5;exitY=0;exitDx=0;exitDy=0;" edge="1" parent="4uj0-8suZrgbBT34IVJw-23" source="3TLnsGkRW6fNsrIRPCbp-1" target="3TLnsGkRW6fNsrIRPCbp-24">
          <mxGeometry width="50" height="50" relative="1" as="geometry">
            <mxPoint x="1309.2909535452322" y="183.33333333333334" as="sourcePoint" />
            <mxPoint x="1371.638141809291" y="122.22222222222221" as="targetPoint" />
            <Array as="points" />
          </mxGeometry>
        </mxCell>
      </root>
    </mxGraphModel>
  </diagram>
</mxfile>
